<mxfile host="app.diagrams.net" modified="2024-03-18T22:04:55.741Z" agent="Mozilla/5.0 (Windows NT 10.0; Win64; x64) AppleWebKit/537.36 (KHTML, like Gecko) Chrome/122.0.0.0 Safari/537.36 LikeWise/96.6.6357.60" etag="mNVOBN0r-aZUBya-8zTb" version="24.0.7" type="device">
  <diagram name="Pagina-1" id="DslDy7VF5TV5tMrVVBWc">
    <mxGraphModel dx="880" dy="529" grid="1" gridSize="10" guides="1" tooltips="1" connect="1" arrows="1" fold="1" page="1" pageScale="1" pageWidth="827" pageHeight="1169" math="0" shadow="0">
      <root>
        <mxCell id="0" />
        <mxCell id="1" parent="0" />
        <mxCell id="ofFQj4dDENagiOjG0GaH-4" value="" style="edgeStyle=orthogonalEdgeStyle;rounded=0;orthogonalLoop=1;jettySize=auto;html=1;" edge="1" parent="1" source="ofFQj4dDENagiOjG0GaH-2" target="ofFQj4dDENagiOjG0GaH-3">
          <mxGeometry relative="1" as="geometry" />
        </mxCell>
        <mxCell id="ofFQj4dDENagiOjG0GaH-2" value="START" style="ellipse;whiteSpace=wrap;html=1;" vertex="1" parent="1">
          <mxGeometry x="354" y="20" width="120" height="80" as="geometry" />
        </mxCell>
        <mxCell id="ofFQj4dDENagiOjG0GaH-6" value="" style="edgeStyle=orthogonalEdgeStyle;rounded=0;orthogonalLoop=1;jettySize=auto;html=1;" edge="1" parent="1" source="ofFQj4dDENagiOjG0GaH-3" target="ofFQj4dDENagiOjG0GaH-5">
          <mxGeometry relative="1" as="geometry" />
        </mxCell>
        <mxCell id="ofFQj4dDENagiOjG0GaH-3" value="Chiedere all&#39;utente&lt;div&gt;il numero di giorni&lt;/div&gt;" style="whiteSpace=wrap;html=1;" vertex="1" parent="1">
          <mxGeometry x="354" y="120" width="120" height="60" as="geometry" />
        </mxCell>
        <mxCell id="ofFQj4dDENagiOjG0GaH-12" style="edgeStyle=orthogonalEdgeStyle;rounded=0;orthogonalLoop=1;jettySize=auto;html=1;exitX=0.5;exitY=1;exitDx=0;exitDy=0;entryX=0.5;entryY=0;entryDx=0;entryDy=0;" edge="1" parent="1" source="ofFQj4dDENagiOjG0GaH-5" target="ofFQj4dDENagiOjG0GaH-10">
          <mxGeometry relative="1" as="geometry" />
        </mxCell>
        <mxCell id="ofFQj4dDENagiOjG0GaH-5" value="Salvare in nuova variabile" style="whiteSpace=wrap;html=1;" vertex="1" parent="1">
          <mxGeometry x="354" y="200" width="120" height="60" as="geometry" />
        </mxCell>
        <mxCell id="ofFQj4dDENagiOjG0GaH-9" value="" style="edgeStyle=orthogonalEdgeStyle;rounded=0;orthogonalLoop=1;jettySize=auto;html=1;" edge="1" parent="1" source="ofFQj4dDENagiOjG0GaH-10" target="ofFQj4dDENagiOjG0GaH-11">
          <mxGeometry relative="1" as="geometry" />
        </mxCell>
        <mxCell id="ofFQj4dDENagiOjG0GaH-10" value="Chiedere all&#39;utente&lt;div&gt;il numero di ore&lt;/div&gt;" style="whiteSpace=wrap;html=1;" vertex="1" parent="1">
          <mxGeometry x="354" y="290" width="120" height="60" as="geometry" />
        </mxCell>
        <mxCell id="ofFQj4dDENagiOjG0GaH-22" style="edgeStyle=orthogonalEdgeStyle;rounded=0;orthogonalLoop=1;jettySize=auto;html=1;exitX=0.5;exitY=1;exitDx=0;exitDy=0;entryX=0.5;entryY=0;entryDx=0;entryDy=0;" edge="1" parent="1" source="ofFQj4dDENagiOjG0GaH-11" target="ofFQj4dDENagiOjG0GaH-20">
          <mxGeometry relative="1" as="geometry" />
        </mxCell>
        <mxCell id="ofFQj4dDENagiOjG0GaH-11" value="Salvare in nuova variabile" style="whiteSpace=wrap;html=1;" vertex="1" parent="1">
          <mxGeometry x="354" y="370" width="120" height="60" as="geometry" />
        </mxCell>
        <mxCell id="ofFQj4dDENagiOjG0GaH-19" value="" style="edgeStyle=orthogonalEdgeStyle;rounded=0;orthogonalLoop=1;jettySize=auto;html=1;" edge="1" parent="1" source="ofFQj4dDENagiOjG0GaH-20" target="ofFQj4dDENagiOjG0GaH-21">
          <mxGeometry relative="1" as="geometry" />
        </mxCell>
        <mxCell id="ofFQj4dDENagiOjG0GaH-20" value="Chiedere all&#39;utente&lt;div&gt;il numero di minuti&lt;/div&gt;" style="whiteSpace=wrap;html=1;" vertex="1" parent="1">
          <mxGeometry x="354" y="460" width="120" height="60" as="geometry" />
        </mxCell>
        <mxCell id="ofFQj4dDENagiOjG0GaH-26" style="edgeStyle=orthogonalEdgeStyle;rounded=0;orthogonalLoop=1;jettySize=auto;html=1;exitX=0.5;exitY=1;exitDx=0;exitDy=0;entryX=0.5;entryY=0;entryDx=0;entryDy=0;" edge="1" parent="1" source="ofFQj4dDENagiOjG0GaH-21" target="ofFQj4dDENagiOjG0GaH-24">
          <mxGeometry relative="1" as="geometry" />
        </mxCell>
        <mxCell id="ofFQj4dDENagiOjG0GaH-21" value="Salvare in nuova variabile" style="whiteSpace=wrap;html=1;" vertex="1" parent="1">
          <mxGeometry x="354" y="540" width="120" height="60" as="geometry" />
        </mxCell>
        <mxCell id="ofFQj4dDENagiOjG0GaH-23" value="" style="edgeStyle=orthogonalEdgeStyle;rounded=0;orthogonalLoop=1;jettySize=auto;html=1;" edge="1" parent="1" source="ofFQj4dDENagiOjG0GaH-24" target="ofFQj4dDENagiOjG0GaH-25">
          <mxGeometry relative="1" as="geometry" />
        </mxCell>
        <mxCell id="ofFQj4dDENagiOjG0GaH-24" value="Chiedere all&#39;utente&lt;div&gt;il numero di secondi&lt;/div&gt;" style="whiteSpace=wrap;html=1;" vertex="1" parent="1">
          <mxGeometry x="354" y="630" width="120" height="60" as="geometry" />
        </mxCell>
        <mxCell id="ofFQj4dDENagiOjG0GaH-28" value="" style="edgeStyle=orthogonalEdgeStyle;rounded=0;orthogonalLoop=1;jettySize=auto;html=1;" edge="1" parent="1" source="ofFQj4dDENagiOjG0GaH-25" target="ofFQj4dDENagiOjG0GaH-27">
          <mxGeometry relative="1" as="geometry" />
        </mxCell>
        <mxCell id="ofFQj4dDENagiOjG0GaH-25" value="Salvare in nuova variabile" style="whiteSpace=wrap;html=1;" vertex="1" parent="1">
          <mxGeometry x="354" y="710" width="120" height="60" as="geometry" />
        </mxCell>
        <mxCell id="ofFQj4dDENagiOjG0GaH-30" value="" style="edgeStyle=orthogonalEdgeStyle;rounded=0;orthogonalLoop=1;jettySize=auto;html=1;" edge="1" parent="1" source="ofFQj4dDENagiOjG0GaH-27" target="ofFQj4dDENagiOjG0GaH-29">
          <mxGeometry relative="1" as="geometry" />
        </mxCell>
        <mxCell id="ofFQj4dDENagiOjG0GaH-27" value="Calcolare il numero totale di secondi come&lt;div&gt;giorni*24*3600+ore*3600+minuti*60+60&lt;/div&gt;" style="whiteSpace=wrap;html=1;" vertex="1" parent="1">
          <mxGeometry x="302" y="800" width="224" height="60" as="geometry" />
        </mxCell>
        <mxCell id="ofFQj4dDENagiOjG0GaH-32" value="" style="edgeStyle=orthogonalEdgeStyle;rounded=0;orthogonalLoop=1;jettySize=auto;html=1;" edge="1" parent="1" source="ofFQj4dDENagiOjG0GaH-29" target="ofFQj4dDENagiOjG0GaH-31">
          <mxGeometry relative="1" as="geometry" />
        </mxCell>
        <mxCell id="ofFQj4dDENagiOjG0GaH-29" value="Stampare a video&lt;div&gt;la lista degli input&lt;/div&gt;&lt;div&gt;e il totale dei secondi&lt;/div&gt;" style="whiteSpace=wrap;html=1;" vertex="1" parent="1">
          <mxGeometry x="354" y="890" width="120" height="60" as="geometry" />
        </mxCell>
        <mxCell id="ofFQj4dDENagiOjG0GaH-31" value="END" style="whiteSpace=wrap;html=1;" vertex="1" parent="1">
          <mxGeometry x="354" y="980" width="120" height="60" as="geometry" />
        </mxCell>
      </root>
    </mxGraphModel>
  </diagram>
</mxfile>
